{"title":"(BRRip)BendersBigScore.MKV.MPEG","uid":15711452,"size":1100177692,"categoryP":"video","categoryS":"movies","magnet":"?xt=urn:btih:2da5fc09f91ee91faf791a69229ee6e38828c1b9&amp;dn=%28BRRip%29BendersBigScore.MKV.MPEG&amp;tr=udp%3A%2F%2Ftracker.leechers-paradise.org%3A6969&amp;tr=udp%3A%2F%2Fzer0day.ch%3A1337&amp;tr=udp%3A%2F%2Fopen.demonii.com%3A1337&amp;tr=udp%3A%2F%2Ftracker.coppersurfer.tk%3A6969&amp;tr=udp%3A%2F%2Fexodus.desync.com%3A6969","seeders":1,"leechers":0,"uploader":"sl1pstar","files":1,"time":1472578189,"description":"Blue-Ray Rip Benders Big Score\r\n\r\nFormat                                   : Matroska\r\nFormat version                           : Version 2\r\nFile size                                : 1.02 GiB\r\nDuration                                 : 1h 28mn\r\nOverall bit rate                         : 1 651 Kbps\r\nWriting application                      : Lavf52.17.0\r\nWriting library                          : Lavf52.17.0\r\n\r\nVideo\r\nID                                       : 1\r\nFormat                                   : AVC\r\nFormat/Info                              : Advanced Video Codec\r\nFormat profile                           :   \r\nFormat settings, CABAC                   : No\r\nFormat settings, ReFrames                : 1 frame\r\nCodec ID                                 : V_MPEG4/ISO/AVC\r\nDuration                                 : 1h 28mn\r\nBit rate                                 : 1 170 Kbps\r\nWidth                                    : 704 pixels\r\nHeight                                   : 400 pixels\r\nDisplay aspect ratio                     : 16:9\r\nFrame rate mode                          : Constant\r\nFrame rate                               : 24.000 fps\r\nOriginal frame rate                      : 23.976 (24000/1001) fps\r\nColor space                              : YUV\r\nChroma subsampling                       : 4:2:0\r\nBit depth                                : 8 bits\r\nScan type                                : Progressive\r\nBits/(Pixel*Frame)                       : 0.173\r\nStream size                              : 744 MiB (71%)\r\nDefault                                  : No\r\nForced                                   : No\r\n\r\nAudio\r\nID                                       : 2\r\nFormat                                   : AC-3\r\nFormat/Info                              : Audio Coding 3\r\nMode extension                           : CM (complete main)\r\nFormat settings, Endianness              : Big\r\nCodec ID                                 : A_AC3\r\nDuration                                 : 1h 28mn\r\nBit rate mode                            : Constant\r\nBit rate                                 : 448 Kbps\r\nChannel(s)                               : 6 channels\r\nChannel positions                        : Front: L C R, Side: L R, LFE\r\nSampling rate                            : 48.0 KHz\r\nFrame rate                               : 31.250 fps (1536 spf)\r\nBit depth                                : 16 bits\r\nCompression mode                         : Lossy\r\nStream size                              : 285 MiB (27%)\r\nDefault                                  : No\r\nForced                                   : No","torrent":{"xt":"urn:btih:2da5fc09f91ee91faf791a69229ee6e38828c1b9","amp;dn":"%28BRRip%29BendersBigScore.MKV.MPEG","amp;tr":["udp%3A%2F%2Ftracker.leechers-paradise.org%3A6969","udp%3A%2F%2Fzer0day.ch%3A1337","udp%3A%2F%2Fopen.demonii.com%3A1337","udp%3A%2F%2Ftracker.coppersurfer.tk%3A6969","udp%3A%2F%2Fexodus.desync.com%3A6969"],"infoHash":"2da5fc09f91ee91faf791a69229ee6e38828c1b9","infoHashBuffer":{"type":"Buffer","data":[45,165,252,9,249,30,233,31,175,121,26,105,34,158,230,227,136,40,193,185]},"announce":[],"urlList":[]}}